<svg version="1.1" id="Layer_1" xmlns="http://www.w3.org/2000/svg" xmlns:xlink="http://www.w3.org/1999/xlink" x="0px" y="0px"
	 width="100%" viewBox="0 0 234 190" enable-background="new 0 0 234 190" xml:space="preserve">
<path fill="#020201" opacity="1.000000" stroke="none" 
	d="
M162.000000,191.000000 
	C108.000000,191.000000 54.500008,191.000000 1.000007,191.000000 
	C1.000005,127.666672 1.000005,64.333351 1.000002,1.000016 
	C78.999992,1.000010 156.999985,1.000010 234.999969,1.000005 
	C234.999985,64.333321 234.999985,127.666634 235.000000,190.999969 
	C210.833328,191.000000 186.666672,191.000000 162.000000,191.000000 
M58.268890,51.876442 
	C58.094917,52.210873 57.920944,52.545303 57.836739,52.867245 
	C57.836739,52.867245 57.812588,52.779884 57.176792,52.998627 
	C55.944485,54.616039 54.712177,56.233452 52.951942,58.266060 
	C52.802441,58.736279 52.770561,59.297894 52.486454,59.663509 
	C41.917645,73.264351 38.031822,88.898018 38.876186,105.795784 
	C39.161041,111.496559 40.498863,117.144707 41.355461,122.816910 
	C41.741577,122.736519 42.127693,122.656136 42.513813,122.575745 
	C43.027542,121.068954 43.541271,119.562172 44.333656,117.401573 
	C46.348694,113.020401 48.363731,108.639229 50.271271,104.242683 
	C50.271271,104.242683 50.276474,104.351151 50.819656,104.135269 
	C50.964420,103.787216 51.109184,103.439156 51.143055,103.116249 
	C51.143055,103.116249 51.178188,103.224403 51.779137,103.003738 
	C52.786377,101.656349 53.793617,100.308960 55.379650,98.594261 
	C62.882107,94.467033 69.948006,88.631348 77.980606,86.578812 
	C93.300743,82.664101 109.174927,80.922752 124.813965,78.249115 
	C135.693268,76.389198 146.551926,74.443001 156.485016,67.790367 
	C157.081696,67.270378 157.678375,66.750389 158.177429,66.207077 
	C158.177429,66.207077 158.169388,66.307137 158.853683,66.137062 
	C164.459061,62.349266 167.194351,56.992943 165.571899,52.108753 
	C164.131088,47.771431 161.813950,44.070496 155.979187,43.901409 
	C157.920410,51.029240 154.121262,55.345829 149.156616,59.158375 
	C149.156616,59.158375 149.151627,59.285572 148.617920,59.371441 
	C148.189972,59.669281 147.762039,59.967125 147.166656,60.229584 
	C147.166656,60.229584 147.133881,60.397541 146.410294,60.525547 
	C129.908844,67.612167 112.222832,66.962662 94.811134,68.654053 
	C96.217308,67.232407 97.797394,66.498573 99.454010,66.042999 
	C105.053352,64.503174 110.913803,63.630951 116.237701,61.441521 
	C123.146217,58.600422 129.635880,54.740810 136.033600,51.048676 
	C136.033600,51.048676 136.319458,51.304985 136.948563,51.067440 
	C143.975571,43.231541 141.134628,32.496864 130.515823,29.940287 
	C109.220680,24.813278 89.099098,27.831991 71.004059,41.000362 
	C71.004059,41.000362 71.056419,41.076523 70.428001,41.194462 
	C69.492378,42.028175 68.556747,42.861893 67.719147,43.708744 
	C67.719147,43.708744 67.709267,43.610329 67.086838,43.783031 
	C66.315636,44.467876 65.544426,45.152725 64.850113,45.849121 
	C64.850113,45.849121 64.843445,45.771656 64.231506,45.953388 
	C63.207096,47.007717 62.182690,48.062046 61.072975,49.074532 
	C61.072975,49.074532 61.114925,49.159786 60.556793,49.412632 
	C59.954624,50.207741 59.352455,51.002853 58.833729,51.820122 
	C58.833729,51.820122 58.842304,51.734215 58.268890,51.876442 
M155.236847,162.273178 
	C155.236847,162.273178 155.233154,162.357574 155.888184,162.188858 
	C157.389175,160.944656 158.890167,159.700455 160.006119,158.279892 
	C160.006119,158.279892 160.399673,158.432831 161.028549,158.169540 
	C163.662201,155.425705 166.295868,152.681870 168.998779,150.000000 
	C168.998779,150.000000 168.935349,149.932510 169.477814,149.712616 
	C169.783813,149.225357 170.089813,148.738083 170.306427,148.251022 
	C170.306427,148.251022 170.328995,148.337509 170.921478,148.026016 
	C173.039673,144.729828 175.157867,141.433624 177.197495,138.173477 
	C177.197495,138.173477 177.245346,138.245468 177.930084,138.053772 
	C193.859085,108.500565 186.892883,76.941299 174.732727,62.483849 
	C174.158951,63.721642 173.611725,64.902191 172.665512,66.640244 
	C165.534927,77.021004 154.953583,83.661095 143.740845,87.215935 
	C130.240799,91.495926 115.661156,92.317703 101.589935,94.863503 
	C86.775597,97.543739 71.680359,99.728729 60.563572,112.467957 
	C60.258045,112.915443 59.952515,113.362930 59.764835,113.803978 
	C59.764835,113.803978 59.741131,113.688370 59.138775,114.006012 
	C50.032669,127.591545 51.905033,144.153732 64.024094,156.995209 
	C64.024094,156.995209 63.978382,156.985672 64.074463,157.671509 
	C65.405418,158.920410 66.736374,160.169296 68.067329,161.418198 
	C68.565468,161.065903 69.063614,160.713608 69.561760,160.361313 
	C68.725693,158.776352 67.889626,157.191376 67.098457,155.339584 
	C67.098457,155.339584 66.960251,155.106964 67.105797,154.361252 
	C67.139679,153.542175 67.356880,152.680969 67.179863,151.910339 
	C64.637848,140.843475 66.804161,130.957336 74.119026,122.150414 
	C74.119026,122.150414 74.422211,122.436409 75.013107,122.169388 
	C75.961388,121.083298 76.909668,119.997215 77.931129,118.934296 
	C77.931129,118.934296 77.915482,118.859154 78.669937,118.833710 
	C86.668053,116.194191 94.549896,113.098717 102.691673,111.022560 
	C114.752960,107.946915 126.997849,105.590744 139.166473,102.937012 
	C141.352722,102.460236 143.548157,102.025612 145.739349,101.571533 
	C145.208344,103.003151 144.452057,103.860947 143.502975,104.258736 
	C132.816818,108.737572 121.965202,112.849716 111.441750,117.678650 
	C104.609406,120.813835 98.244049,124.966713 91.768738,128.813492 
	C91.768738,128.813492 91.723892,128.639404 91.176041,128.812805 
	C91.005920,129.143082 90.835800,129.473343 90.753723,129.788300 
	C90.753723,129.788300 90.720963,129.705154 90.090309,129.938446 
	C78.661377,141.734467 78.519577,160.289993 89.814354,170.182907 
	C89.814354,170.182907 89.723366,170.228363 89.969017,170.856415 
	C92.340034,171.980270 94.711052,173.104141 97.681717,174.554657 
	C98.133331,174.594986 98.584946,174.635300 99.700218,175.101761 
	C108.513535,175.000763 117.326843,174.899765 126.749634,174.792221 
	C127.132034,174.666702 127.514435,174.541199 128.655090,174.520065 
	C136.540070,171.119202 144.425034,167.718323 152.228455,164.275711 
	C152.228455,164.275711 152.236130,164.367004 152.877930,164.247482 
	C153.691254,163.597351 154.504562,162.947220 155.236847,162.273178 
z"/>
<path fill="#F8C93D" opacity="1.000000" stroke="none" 
	d="
M61.098503,112.303108 
	C71.680359,99.728729 86.775597,97.543739 101.589935,94.863503 
	C115.661156,92.317703 130.240799,91.495926 143.740845,87.215935 
	C154.953583,83.661095 165.534927,77.021004 173.244751,66.335922 
	C174.964996,66.740395 176.619751,67.173523 177.170151,68.199242 
	C185.729675,84.151024 187.927200,101.047112 183.668182,118.599022 
	C182.048416,125.274307 179.416153,131.703903 177.245346,138.245468 
	C177.245346,138.245468 177.197495,138.173477 176.911682,138.277588 
	C174.526917,141.700302 172.427948,145.018906 170.328995,148.337509 
	C170.328995,148.337509 170.306427,148.251022 170.059906,148.344086 
	C169.520721,148.935593 169.228043,149.434052 168.935349,149.932510 
	C168.935349,149.932510 168.998779,150.000000 168.628418,150.025574 
	C165.638580,152.845032 163.019135,155.638931 160.399673,158.432831 
	C160.399673,158.432831 160.006119,158.279892 159.846161,158.316803 
	C158.201859,159.688324 156.717499,161.022949 155.233154,162.357574 
	C155.233154,162.357574 155.236847,162.273178 154.930145,162.260651 
	C153.827667,162.954437 153.031906,163.660721 152.236130,164.367004 
	C152.236130,164.367004 152.228455,164.275711 151.895599,164.267365 
	C144.207306,167.042175 136.841324,169.798294 129.514160,172.654022 
	C128.847473,172.913864 128.430023,173.813278 127.896835,174.415680 
	C127.514435,174.541199 127.132034,174.666702 126.084175,174.604248 
	C119.857857,174.578522 114.297852,174.799286 108.735809,174.880630 
	C105.504417,174.927902 102.269753,174.751419 99.036560,174.675629 
	C98.584946,174.635300 98.133331,174.594986 97.309074,174.083496 
	C94.532074,172.484360 92.127724,171.356354 89.723366,170.228363 
	C89.723366,170.228363 89.814354,170.182907 89.786400,169.868011 
	C89.588852,169.086746 89.504463,168.563660 89.237312,168.162201 
	C80.727249,155.373322 80.898018,144.685806 89.757126,132.436813 
	C90.299850,131.686417 90.409698,130.622955 90.720963,129.705154 
	C90.720963,129.705154 90.753723,129.788300 90.961906,129.679749 
	C91.354691,129.260605 91.539291,128.950012 91.723892,128.639404 
	C91.723892,128.639404 91.768738,128.813492 92.080139,128.765396 
	C99.979408,125.099876 107.485580,121.296768 115.176208,117.912888 
	C124.418175,113.846428 133.875824,110.269646 143.111389,106.189514 
	C145.784225,105.008705 148.014816,102.826859 150.448151,101.103935 
	C150.249191,100.612831 150.050232,100.121735 149.851273,99.630630 
	C148.489487,99.630630 147.070984,99.383362 145.777298,99.680161 
	C142.725494,100.380302 139.768692,101.503693 136.710602,102.165550 
	C123.759727,104.968468 110.668655,107.218887 97.867531,110.580276 
	C90.967941,112.392029 84.550476,116.039780 77.915482,118.859154 
	C77.915482,118.859154 77.931129,118.934296 77.582771,119.028503 
	C76.297012,120.227280 75.359612,121.331848 74.422211,122.436409 
	C74.422211,122.436409 74.119026,122.150414 73.936188,122.326088 
	C72.478271,123.748657 70.946655,124.822540 69.969955,126.270683 
	C63.867271,135.319031 63.562828,145.034424 66.960251,155.106964 
	C66.960251,155.106964 67.098457,155.339584 66.873672,155.769623 
	C65.758720,156.461670 64.868553,156.723663 63.978378,156.985657 
	C63.978382,156.985672 64.024094,156.995209 64.022079,156.649414 
	C63.139954,154.744949 62.355217,153.122543 61.363670,151.638306 
	C56.302967,144.062943 53.429237,135.970718 55.757301,126.788040 
	C56.877686,122.368866 58.400532,118.051720 59.741127,113.688370 
	C59.741131,113.688370 59.764835,113.803978 59.977608,113.729095 
	C60.493088,113.203850 60.795795,112.753479 61.098503,112.303108 
z"/>
<path fill="#F7C83E" opacity="1.000000" stroke="none" 
	d="
M44.055000,118.055382 
	C43.541271,119.562172 43.027542,121.068954 42.513813,122.575745 
	C42.127693,122.656136 41.741577,122.736519 41.355461,122.816910 
	C40.498863,117.144707 39.161041,111.496559 38.876186,105.795784 
	C38.031822,88.898018 41.917645,73.264351 52.486454,59.663509 
	C52.770561,59.297894 52.802441,58.736279 53.566483,57.971840 
	C55.391548,56.045040 56.602066,54.412464 57.812588,52.779884 
	C57.812588,52.779884 57.836739,52.867245 58.050278,52.765274 
	C58.456646,52.353611 58.649475,52.043911 58.842304,51.734215 
	C58.842304,51.734215 58.833729,51.820122 59.122520,51.776825 
	C59.979183,50.875614 60.547054,50.017700 61.114929,49.159786 
	C61.114925,49.159786 61.072975,49.074532 61.470020,49.070023 
	C62.859192,47.967560 63.851318,46.869610 64.843445,45.771656 
	C64.843445,45.771656 64.850113,45.849121 65.154587,45.835327 
	C66.209122,45.084461 66.959198,44.347397 67.709267,43.610329 
	C67.709267,43.610329 67.719147,43.708744 68.007545,43.672745 
	C69.216103,42.783337 70.136261,41.929928 71.056419,41.076523 
	C71.056419,41.076523 71.004059,41.000362 71.405716,41.033802 
	C77.642944,38.346470 83.341385,35.265358 89.343193,32.981453 
	C101.107346,28.504770 113.429497,28.974016 125.668007,30.106298 
	C136.575806,31.115467 141.312683,39.744999 136.654709,49.379715 
	C136.382050,49.943680 136.423935,50.659714 136.319458,51.304985 
	C136.319458,51.304985 136.033600,51.048676 135.808655,51.159348 
	C128.035492,54.536232 120.609100,58.134403 112.900574,60.963917 
	C106.702995,63.238819 100.136147,64.490448 93.789917,66.386147 
	C91.254257,67.143570 88.870934,68.410957 86.418266,69.446213 
	C86.589470,70.160889 86.760674,70.875557 86.931870,71.590233 
	C89.880470,71.389763 92.852379,71.359642 95.773697,70.959824 
	C109.719887,69.051155 123.686638,67.246727 137.564880,64.920822 
	C140.913193,64.359665 143.952484,61.954639 147.133881,60.397541 
	C147.133881,60.397541 147.166656,60.229584 147.445953,60.338211 
	C148.200699,60.059746 148.676163,59.672661 149.151627,59.285572 
	C149.151627,59.285572 149.156616,59.158375 149.578400,59.156719 
	C156.510406,57.515476 157.037888,51.586781 158.646729,46.489693 
	C164.256088,49.500927 165.828751,54.753014 162.750580,59.874138 
	C161.398468,62.123627 159.706848,64.169044 158.169373,66.307129 
	C158.169388,66.307137 158.177429,66.207077 157.903839,66.210953 
	C157.042679,66.771973 156.455093,67.329102 155.867508,67.886230 
	C146.551926,74.443001 135.693268,76.389198 124.813965,78.249115 
	C109.174927,80.922752 93.300743,82.664101 77.980606,86.578812 
	C69.948006,88.631348 62.882107,94.467033 54.764008,98.845947 
	C53.158302,100.473228 52.168247,101.848816 51.178192,103.224403 
	C51.178188,103.224403 51.143055,103.116249 50.954903,103.242691 
	C50.603325,103.696472 50.439899,104.023811 50.276474,104.351151 
	C50.276474,104.351151 50.271271,104.242683 49.978878,104.329468 
	C45.656620,108.073799 43.617058,112.553116 44.055000,118.055382 
z"/>
<path fill="#C6AF5E" opacity="1.000000" stroke="none" 
	d="
M78.292709,118.846436 
	C84.550476,116.039780 90.967941,112.392029 97.867531,110.580276 
	C110.668655,107.218887 123.759727,104.968468 136.710602,102.165550 
	C139.768692,101.503693 142.725494,100.380302 145.777298,99.680161 
	C147.070984,99.383362 148.489487,99.630630 149.851273,99.630630 
	C150.050232,100.121735 150.249191,100.612831 150.448151,101.103935 
	C148.014816,102.826859 145.784225,105.008705 143.111389,106.189514 
	C133.875824,110.269646 124.418175,113.846428 115.176208,117.912888 
	C107.485580,121.296768 99.979408,125.099876 92.030502,128.690460 
	C98.244049,124.966713 104.609406,120.813835 111.441750,117.678650 
	C121.965202,112.849716 132.816818,108.737572 143.502975,104.258736 
	C144.452057,103.860947 145.208344,103.003151 145.739349,101.571533 
	C143.548157,102.025612 141.352722,102.460236 139.166473,102.937012 
	C126.997849,105.590744 114.752960,107.946915 102.691673,111.022560 
	C94.549896,113.098717 86.668053,116.194191 78.292709,118.846436 
z"/>
<path fill="#CCB25D" opacity="1.000000" stroke="none" 
	d="
M146.772095,60.461544 
	C143.952484,61.954639 140.913193,64.359665 137.564880,64.920822 
	C123.686638,67.246727 109.719887,69.051155 95.773697,70.959824 
	C92.852379,71.359642 89.880470,71.389763 86.931870,71.590233 
	C86.760674,70.875557 86.589470,70.160889 86.418266,69.446213 
	C88.870934,68.410957 91.254257,67.143570 93.789917,66.386147 
	C100.136147,64.490448 106.702995,63.238819 112.900574,60.963917 
	C120.609100,58.134403 128.035492,54.536232 135.944794,51.294823 
	C129.635880,54.740810 123.146217,58.600422 116.237701,61.441521 
	C110.913803,63.630951 105.053352,64.503174 99.454010,66.042999 
	C97.797394,66.498573 96.217308,67.232407 94.811134,68.654053 
	C112.222832,66.962662 129.908844,67.612167 146.772095,60.461544 
z"/>
<path fill="#CCB25D" opacity="1.000000" stroke="none" 
	d="
M136.634003,51.186211 
	C136.423935,50.659714 136.382050,49.943680 136.654709,49.379715 
	C141.312683,39.744999 136.575806,31.115467 125.668007,30.106298 
	C113.429497,28.974016 101.107346,28.504770 89.343193,32.981453 
	C83.341385,35.265358 77.642944,38.346470 71.437546,41.067562 
	C89.099098,27.831991 109.220680,24.813278 130.515823,29.940287 
	C141.134628,32.496864 143.975571,43.231541 136.634003,51.186211 
z"/>
<path fill="#C6AF5E" opacity="1.000000" stroke="none" 
	d="
M177.587708,138.149628 
	C179.416153,131.703903 182.048416,125.274307 183.668182,118.599022 
	C187.927200,101.047112 185.729675,84.151024 177.170151,68.199242 
	C176.619751,67.173523 174.964996,66.740395 173.444229,66.057167 
	C173.611725,64.902191 174.158951,63.721642 174.732727,62.483849 
	C186.892883,76.941299 193.859085,108.500565 177.587708,138.149628 
z"/>
<path fill="#CBB35E" opacity="1.000000" stroke="none" 
	d="
M158.511536,66.222092 
	C159.706848,64.169044 161.398468,62.123627 162.750580,59.874138 
	C165.828751,54.753014 164.256088,49.500927 158.646729,46.489693 
	C157.037888,51.586781 156.510406,57.515476 149.641754,59.162754 
	C154.121262,55.345829 157.920410,51.029240 155.979187,43.901409 
	C161.813950,44.070496 164.131088,47.771431 165.571899,52.108753 
	C167.194351,56.992943 164.459061,62.349266 158.511536,66.222092 
z"/>
<path fill="#D1B961" opacity="1.000000" stroke="none" 
	d="
M59.439949,113.847191 
	C58.400532,118.051720 56.877686,122.368866 55.757301,126.788040 
	C53.429237,135.970718 56.302967,144.062943 61.363670,151.638306 
	C62.355217,153.122543 63.139954,154.744949 64.011765,156.670349 
	C51.905033,144.153732 50.032669,127.591545 59.439949,113.847191 
z"/>
<path fill="#C6AF5E" opacity="1.000000" stroke="none" 
	d="
M90.405632,129.821808 
	C90.409698,130.622955 90.299850,131.686417 89.757126,132.436813 
	C80.898018,144.685806 80.727249,155.373322 89.237312,168.162201 
	C89.504463,168.563660 89.588852,169.086746 89.770233,169.916229 
	C78.519577,160.289993 78.661377,141.734467 90.405632,129.821808 
z"/>
<path fill="#C6AF5E" opacity="1.000000" stroke="none" 
	d="
M67.033020,154.734100 
	C63.562828,145.034424 63.867271,135.319031 69.969955,126.270683 
	C70.946655,124.822540 72.478271,123.748657 74.099663,122.455330 
	C66.804161,130.957336 64.637848,140.843475 67.179863,151.910339 
	C67.356880,152.680969 67.139679,153.542175 67.033020,154.734100 
z"/>
<path fill="#C6AF5E" opacity="1.000000" stroke="none" 
	d="
M99.368393,174.888702 
	C102.269753,174.751419 105.504417,174.927902 108.735809,174.880630 
	C114.297852,174.799286 119.857857,174.578522 125.779434,174.607513 
	C117.326843,174.899765 108.513535,175.000763 99.368393,174.888702 
z"/>
<path fill="#C6AF5E" opacity="1.000000" stroke="none" 
	d="
M128.275970,174.467865 
	C128.430023,173.813278 128.847473,172.913864 129.514160,172.654022 
	C136.841324,169.798294 144.207306,167.042175 151.936386,164.288239 
	C144.425034,167.718323 136.540070,171.119202 128.275970,174.467865 
z"/>
<path fill="#CDB35C" opacity="1.000000" stroke="none" 
	d="
M44.194328,117.728477 
	C43.617058,112.553116 45.656620,108.073799 50.032627,104.337158 
	C48.363731,108.639229 46.348694,113.020401 44.194328,117.728477 
z"/>
<path fill="#C6AF5E" opacity="1.000000" stroke="none" 
	d="
M160.714111,158.301178 
	C163.019135,155.638931 165.638580,152.845032 168.593781,149.994583 
	C166.295868,152.681870 163.662201,155.425705 160.714111,158.301178 
z"/>
<path fill="#C6AF5E" opacity="1.000000" stroke="none" 
	d="
M170.625244,148.181763 
	C172.427948,145.018906 174.526917,141.700302 176.950958,138.259567 
	C175.157867,141.433624 173.039673,144.729828 170.625244,148.181763 
z"/>
<path fill="#D1B961" opacity="1.000000" stroke="none" 
	d="
M64.026421,157.328583 
	C64.868553,156.723663 65.758720,156.461670 66.851227,155.903046 
	C67.889626,157.191376 68.725693,158.776352 69.561760,160.361313 
	C69.063614,160.713608 68.565468,161.065903 68.067329,161.418198 
	C66.736374,160.169296 65.405418,158.920410 64.026421,157.328583 
z"/>
<path fill="#C6AF5E" opacity="1.000000" stroke="none" 
	d="
M89.846191,170.542389 
	C92.127724,171.356354 94.532074,172.484360 97.009247,173.920181 
	C94.711052,173.104141 92.340034,171.980270 89.846191,170.542389 
z"/>
<path fill="#C6AF5E" opacity="1.000000" stroke="none" 
	d="
M155.560669,162.273224 
	C156.717499,161.022949 158.201859,159.688324 160.038681,158.404968 
	C158.890167,159.700455 157.389175,160.944656 155.560669,162.273224 
z"/>
<path fill="#CCB25D" opacity="1.000000" stroke="none" 
	d="
M57.494690,52.889256 
	C56.602066,54.412464 55.391548,56.045040 53.830448,57.764244 
	C54.712177,56.233452 55.944485,54.616039 57.494690,52.889256 
z"/>
<path fill="#CDB35C" opacity="1.000000" stroke="none" 
	d="
M51.478664,103.114075 
	C52.168247,101.848816 53.158302,100.473228 54.474609,99.029602 
	C53.793617,100.308960 52.786377,101.656349 51.478664,103.114075 
z"/>
<path fill="#CCB25D" opacity="1.000000" stroke="none" 
	d="
M64.537476,45.862522 
	C63.851318,46.869610 62.859192,47.967560 61.512672,49.090942 
	C62.182690,48.062046 63.207096,47.007717 64.537476,45.862522 
z"/>
<path fill="#C6AF5E" opacity="1.000000" stroke="none" 
	d="
M74.717659,122.302902 
	C75.359612,121.331848 76.297012,120.227280 77.546181,119.016922 
	C76.909668,119.997215 75.961388,121.083298 74.717659,122.302902 
z"/>
<path fill="#CCB25D" opacity="1.000000" stroke="none" 
	d="
M70.742210,41.135490 
	C70.136261,41.929928 69.216103,42.783337 67.958527,43.666176 
	C68.556747,42.861893 69.492378,42.028175 70.742210,41.135490 
z"/>
<path fill="#CCB25D" opacity="1.000000" stroke="none" 
	d="
M60.835861,49.286209 
	C60.547054,50.017700 59.979183,50.875614 59.080803,51.765743 
	C59.352455,51.002853 59.954624,50.207741 60.835861,49.286209 
z"/>
<path fill="#C6AF5E" opacity="1.000000" stroke="none" 
	d="
M152.557037,164.307251 
	C153.031906,163.660721 153.827667,162.954437 154.970642,162.272614 
	C154.504562,162.947220 153.691254,163.597351 152.557037,164.307251 
z"/>
<path fill="#CCB25D" opacity="1.000000" stroke="none" 
	d="
M67.398056,43.696678 
	C66.959198,44.347397 66.209122,45.084461 65.116135,45.829552 
	C65.544426,45.152725 66.315636,44.467876 67.398056,43.696678 
z"/>
<path fill="#CBB35E" opacity="1.000000" stroke="none" 
	d="
M156.176270,67.838303 
	C156.455093,67.329102 157.042679,66.771973 157.952667,66.222626 
	C157.678375,66.750389 157.081696,67.270378 156.176270,67.838303 
z"/>
<path fill="#CCB25D" opacity="1.000000" stroke="none" 
	d="
M148.884766,59.328506 
	C148.676163,59.672661 148.200699,60.059746 147.529663,60.355900 
	C147.762039,59.967125 148.189972,59.669281 148.884766,59.328506 
z"/>
<path fill="#C6AF5E" opacity="1.000000" stroke="none" 
	d="
M169.206573,149.822571 
	C169.228043,149.434052 169.520721,148.935593 170.104614,148.343979 
	C170.089813,148.738083 169.783813,149.225357 169.206573,149.822571 
z"/>
<path fill="#D1B961" opacity="1.000000" stroke="none" 
	d="
M60.831039,112.385529 
	C60.795795,112.753479 60.493088,113.203850 59.918682,113.732315 
	C59.952515,113.362930 60.258045,112.915443 60.831039,112.385529 
z"/>
<path fill="#CCB25D" opacity="1.000000" stroke="none" 
	d="
M58.555595,51.805328 
	C58.649475,52.043911 58.456646,52.353611 58.005394,52.771519 
	C57.920944,52.545303 58.094917,52.210873 58.555595,51.805328 
z"/>
<path fill="#C6AF5E" opacity="1.000000" stroke="none" 
	d="
M91.449966,128.726105 
	C91.539291,128.950012 91.354691,129.260605 90.917885,129.687408 
	C90.835800,129.473343 91.005920,129.143082 91.449966,128.726105 
z"/>
<path fill="#CDB35C" opacity="1.000000" stroke="none" 
	d="
M50.548065,104.243210 
	C50.439899,104.023811 50.603325,103.696472 51.010353,103.230118 
	C51.109184,103.439156 50.964420,103.787216 50.548065,104.243210 
z"/>
</svg>